<?xml version="1.0" encoding="UTF-8" standalone="no"?>
<svg
   id="visual"
   viewBox="0 0 900 73.385406"
   width="900"
   height="73.385406"
   version="1.1"
   sodipodi:docname="layered-waves-haikei.svg"
   inkscape:version="1.2.1 (9c6d41e, 2022-07-14)"
   xmlns:inkscape="http://www.inkscape.org/namespaces/inkscape"
   xmlns:sodipodi="http://sodipodi.sourceforge.net/DTD/sodipodi-0.dtd"
   xmlns="http://www.w3.org/2000/svg"
   xmlns:svg="http://www.w3.org/2000/svg">
  <defs
     id="defs15" />
  <sodipodi:namedview
     id="namedview13"
     pagecolor="#ffffff"
     bordercolor="#000000"
     borderopacity="0.25"
     inkscape:showpageshadow="2"
     inkscape:pageopacity="0.0"
     inkscape:pagecheckerboard="0"
     inkscape:deskcolor="#d1d1d1"
     showgrid="false"
     inkscape:zoom="1.3433333"
     inkscape:cx="422.82878"
     inkscape:cy="39.454094"
     inkscape:window-width="1852"
     inkscape:window-height="578"
     inkscape:window-x="19"
     inkscape:window-y="520"
     inkscape:window-maximized="0"
     inkscape:current-layer="visual" />
  <path
     d="m 0,55 21.5,3.7 c 21.5,3.6 64.5,11 107.3,13.5 42.9,2.5 85.5,0.1 128.4,-3.4 C 300,65.3 343,60.7 385.8,56.8 428.7,53 471.3,50 514.2,53 557,56 600,65 642.8,69.7 c 42.9,4.6 85.5,5 128.4,0.6 C 814,66 857,57 878.5,52.5 L 900,48 V 0 H 878.5 C 857,0 814,0 771.2,0 728.3,0 685.7,0 642.8,0 600,0 557,0 514.2,0 471.3,0 428.7,0 385.8,0 343,0 300,0 257.2,0 214.3,0 171.7,0 128.8,0 86,0 43,0 21.5,0 H 0 Z"
     fill="#0046ff"
     id="path4" />
  <path
     d="M 0,58 21.5,54.8 C 43,51.7 86,45.3 128.8,43.8 171.7,42.3 214.3,45.7 257.2,49.3 300,53 343,57 385.8,54.8 428.7,52.7 471.3,44.3 514.2,44.5 557,44.7 600,53.3 642.8,56.7 685.7,60 728.3,58 771.2,53.8 814,49.7 857,43.3 878.5,40.2 L 900,37 V 0 H 878.5 C 857,0 814,0 771.2,0 728.3,0 685.7,0 642.8,0 600,0 557,0 514.2,0 471.3,0 428.7,0 385.8,0 343,0 300,0 257.2,0 214.3,0 171.7,0 128.8,0 86,0 43,0 21.5,0 H 0 Z"
     fill="#434dfa"
     id="path6" />
  <path
     d="M 0,34 21.5,33.5 C 43,33 86,32 128.8,31.5 171.7,31 214.3,31 257.2,32.8 300,34.7 343,38.3 385.8,40.2 428.7,42 471.3,42 514.2,39.3 557,36.7 600,31.3 642.8,30 c 42.9,-1.3 85.5,1.3 128.4,2.3 42.8,1 85.8,0.4 107.3,0 L 900,32 V 0 H 878.5 C 857,0 814,0 771.2,0 728.3,0 685.7,0 642.8,0 600,0 557,0 514.2,0 471.3,0 428.7,0 385.8,0 343,0 300,0 257.2,0 214.3,0 171.7,0 128.8,0 86,0 43,0 21.5,0 H 0 Z"
     fill="#5e55f6"
     id="path8" />
  <path
     d="m 0,11 21.5,2.5 C 43,16 86,21 128.8,21.3 c 42.9,0.4 85.5,-4 128.4,-5.6 42.8,-1.7 85.8,-0.7 128.6,1 42.9,1.6 85.5,4 128.4,5.1 42.8,1.2 85.8,1.2 128.6,1.4 42.9,0.1 85.5,0.5 128.4,-0.9 C 814,21 857,18 878.5,16.5 L 900,15 V 0 H 878.5 C 857,0 814,0 771.2,0 728.3,0 685.7,0 642.8,0 600,0 557,0 514.2,0 471.3,0 428.7,0 385.8,0 343,0 300,0 257.2,0 214.3,0 171.7,0 128.8,0 86,0 43,0 21.5,0 H 0 Z"
     fill="#715df2"
     id="path10" />
</svg>
